<svg xmlns="http://www.w3.org/2000/svg" width="75" height="72" fill="none"><path fill="#81B3D2" fill-rule="evenodd" d="M45.66 65.03h-16V41.21h16v23.82Zm-2.94-20.9H32.59v17.98h10.13V44.13Z" clip-rule="evenodd"/><path fill="#81B3D2" fill-rule="evenodd" d="m72.77 39.25 2.08-2.06-9.91-9.87V0H51.13v13.57L37.5 0 .15 37.19l2.08 2.06 7.83-7.8v37.63H6.12V72H70v-2.92h-5.06V31.46l7.83 7.8ZM62 69.08H13V28.53L37.5 4.15 62 28.53v40.55Zm-7.94-52.59L62 24.4V2.92h-7.94V16.5Z" clip-rule="evenodd"/><path fill="#81B3D2" fill-rule="evenodd" d="M37.66 34.8a7.73 7.73 0 0 1-7.75-7.72 7.73 7.73 0 0 1 7.75-7.71 7.73 7.73 0 0 1 7.75 7.71 7.73 7.73 0 0 1-7.75 7.71Zm4.97-7.72a4.96 4.96 0 0 0-4.97-4.95 4.96 4.96 0 1 0 4.97 4.95ZM17.05 41.21h3v3.92h-3V41.2Zm8.94 0h-3v3.92h3V41.2Zm-8.94 5.97h3v3.92h-3v-3.92Zm8.94 0h-3v3.92h3v-3.92Zm23-5.97h3v3.92h-3V41.2Zm8.94 0h-3v3.92h3V41.2ZM49 47.18h3v3.92h-3v-3.92Zm8.94 0h-3v3.92h3v-3.92Z" clip-rule="evenodd"/></svg>