<svg xmlns="http://www.w3.org/2000/svg" width="458" height="214" fill="none">
  <path fill="#fff" fill-rule="evenodd" d="M9.67 52.12c.08.07.12.15.12.23.08 0 .15.04.23.11a51.98 51.98 0 0 0 7.09 6.5 16.19 16.19 0 0 0 9.05 3.14c.08 0 .16.04.23.12h.35c.08 0 .16.04.24.12h1.27c.4-.08.74-.16 1.05-.24a9.7 9.7 0 0 0 3.48-1.4 7.72 7.72 0 0 0 2.67-2.55l.24-.46.23-.46c.15-.55.27-1.05.35-1.51.07-.47.11-.9.11-1.28 0-2.1-.93-3.83-2.78-5.23a19.95 19.95 0 0 0-5.81-3.37c-.8-.29-1.61-.52-2.44-.7a31.4 31.4 0 0 0-2.2-.57h-.24c-.08-.08-.15-.12-.23-.12A38 38 0 0 1 12 40.04a15.94 15.94 0 0 1-6.86-8.94l-.7-2.44c-.15-.89-.27-1.78-.34-2.67a3.41 3.41 0 0 1-.12-.82V22.4c.08-.62.2-1.24.35-1.86a25.5 25.5 0 0 1 1.16-4.65 17.61 17.61 0 0 1 2.1-4.18c2.47-4.1 5.64-7.04 9.52-8.82A29.62 29.62 0 0 1 29.4.2c1.01 0 2.02.07 3.03.23 1.08.08 2.17.2 3.25.35 2.82.47 5.58 1.25 8.24 2.32a44.3 44.3 0 0 1 7.67 3.83l-6.4 14.29a44.63 44.63 0 0 0-6.61-4.07 16.63 16.63 0 0 0-7.55-1.74h-.93a9.2 9.2 0 0 0-5 2.44c-1.54 1.31-2.31 2.75-2.31 4.3v.7c.07.22.19.46.34.69.16.54.43 1.04.82 1.5a10 10 0 0 0 1.27 1.29c.86.7 2.1 1.35 3.72 1.97 1.63.54 3.33 1.08 5.11 1.63 1.47.38 2.9.77 4.3 1.16 1.4.3 2.55.62 3.48.93 4.34 1.54 7.59 4.14 9.76 7.78a22.38 22.38 0 0 1 3.36 11.38v.58c0 .46-.04.93-.11 1.4v1.27a28.67 28.67 0 0 1-3.95 11.5 21.47 21.47 0 0 1-8.48 8.36 37.06 37.06 0 0 1-4.06 1.62c-1.39.39-2.78.74-4.18 1.05-1.15.23-2.32.38-3.49.46-1.11.15-2.24.23-3.37.23h-1.27a38.96 38.96 0 0 1-13.7-3.02A42.69 42.69 0 0 1 .37 66.98l9.3-14.87Zm215.9-46.25a36.76 36.76 0 0 0-14.87 15.1 43.76 43.76 0 0 0-4.65 15.1c-.07 1-.1 2-.1 3.01 0 6.81 1.85 13.4 5.56 19.74a37.92 37.92 0 0 0 22.77 17.42c2.58.7 5.23 1.16 7.9 1.4h1.5c.54.07 1.08.11 1.63.11 7.59 0 14.82-2.05 21.71-6.15a37.35 37.35 0 0 0 15.22-17.54c.6-1.51 1.1-3.06 1.5-4.64.46-1.6.78-3.23.94-4.88.15-.77.23-1.55.23-2.32.08-.85.11-1.67.11-2.44 0-6.43-1.5-12.58-4.52-18.47a36.16 36.16 0 0 0-12.78-14.28 39.43 39.43 0 0 0-8.13-3.95c-2.74-1-5.58-1.7-8.47-2.09l-2.9-.23c-.94-.08-1.87-.12-2.8-.12a40.73 40.73 0 0 0-19.85 5.23Zm73.14 70.08V1.98h19.51l27.87 37.97a37.23 37.23 0 0 1 1.98 3.48c.7 1.18 1.36 2.38 1.97 3.6l1.4 3.02c.46 1.01.92 1.98 1.39 2.9-.07-.81-.2-1.63-.35-2.43-.08-.78-.16-1.59-.23-2.44a91.3 91.3 0 0 1-.47-9.76V1.98h19.4v73.97h-19.4l-28.1-38.2a21.62 21.62 0 0 1-2.2-3.26 65.85 65.85 0 0 1-1.98-4.06c-.45-.98-.91-1.94-1.4-2.9-.35-.95-.74-1.87-1.16-2.8.4 2.4.7 4.85.93 7.32.24 2.48.35 4.96.35 7.44v36.46h-19.5ZM406.17 1.98l-25.43 73.97h19.97l3.84-13.36h28.56l3.72 13.36h20.2L431.38 1.98h-25.2Zm2.67 46.33 7.55-24.5c.3-1.08.58-2.16.81-3.25.32-1.11.6-2.24.82-3.37a.9.9 0 0 0 .11-.35c0-.15.04-.3.12-.46.08-.47.15-.9.23-1.28.16-.47.27-.9.35-1.28.08.39.16.81.23 1.28.08.39.2.81.35 1.28.24 1.28.51 2.56.81 3.83l1.16 3.6 7.55 24.5h-20.09Zm-145.3-.75c.23-.78.43-1.59.58-2.44.24-.85.39-1.7.47-2.55.08-.55.11-1.09.11-1.63a8.46 8.46 0 0 0 0-2.9v-1.4a27.38 27.38 0 0 0-3.02-9.64 17.79 17.79 0 0 0-6.73-7.2 30.79 30.79 0 0 0-4.65-1.85c-.77-.16-1.54-.27-2.32-.35-.76-.16-1.54-.23-2.32-.24a17.9 17.9 0 0 0-10.92 3.72 19.32 19.32 0 0 0-6.97 9.87l-.23.47v.46c-.24.72-.43 1.46-.58 2.2l-.46 2.21-.24 1.63v2.44c0 .23.04.5.12.81.23 4.1 1.47 8.02 3.72 11.73a16.39 16.39 0 0 0 9.52 7.2l1.4.46 1.5.24 1.4.23h1.39c4.1 0 7.78-1.2 11.03-3.6a20.7 20.7 0 0 0 7.2-9.87Zm-94 26.53c4.26-.93 8.2-2.63 11.85-5.1a32.03 32.03 0 0 0 10.33-12.55 41.2 41.2 0 0 0 3.95-15.91v-2.9c0-.47-.04-.93-.12-1.4a40.3 40.3 0 0 0-4.06-15.33 30.47 30.47 0 0 0-10.1-11.96 30.35 30.35 0 0 0-11.27-5.1 72.53 72.53 0 0 0-15.9-1.86h-25.1v73.97h23.81a80.46 80.46 0 0 0 16.6-1.86ZM149 59.34c.23 0 .46.04.7.12h.8c.32 0 .59.04.82.12h3.13l2.44-.24c2-.15 3.99-.5 5.93-1.04a17.04 17.04 0 0 0 5.22-2.44 15.46 15.46 0 0 0 5.46-7.2 25.73 25.73 0 0 0 1.86-9.64v-.93c0-.3-.04-.62-.12-.93a23.14 23.14 0 0 0-2.09-8.47 16.4 16.4 0 0 0-5.1-6.63 13.34 13.34 0 0 0-5.47-2.66c-1.98-.48-4-.75-6.04-.82H149v40.76ZM69.08 1.97v73.98h45.4v-16.6H88.93V46.8h24.04V31H88.93V18.13h25.55V1.97h-45.4Zm282.34 196.39c-.11.29-.17.58-.17.88 0 .71.25 1.26.74 1.64.5.39 1.07.58 1.72.58-.02.38-.12.72-.3 1-.18.3-.4.56-.68.77-.26.21-.55.4-.85.54-.3.14-.58.26-.83.35l1.35 1.99.1-.05.03-.01.05-.03.19-.08a11.9 11.9 0 0 0 1.62-.9 5.7 5.7 0 0 0 2.14-2.6 6 6 0 0 0 .45-2.36c0-.45-.06-.88-.2-1.28s-.33-.76-.57-1.05c-.3-.31-.65-.55-1.06-.72a3.43 3.43 0 0 0-1.3-.26 2.64 2.64 0 0 0-1.92.8c-.23.23-.4.5-.5.79Zm7.67.88a2.47 2.47 0 0 1 .67-1.67 2.6 2.6 0 0 1 1.92-.8c.45 0 .89.09 1.3.26.42.17.77.4 1.06.72.25.3.44.64.58 1.05.13.4.2.83.2 1.28a6 6 0 0 1-1.75 4.28 8.18 8.18 0 0 1-2.46 1.58l-.38.17-1.35-2c.25-.08.52-.2.83-.34.3-.15.59-.33.86-.54.27-.22.5-.47.67-.76.18-.3.28-.63.3-1.01-.62 0-1.22-.2-1.71-.58a1.96 1.96 0 0 1-.74-1.64ZM94.36 141.39c.11-.29.17-.58.17-.87 0-.72-.25-1.27-.74-1.65a2.73 2.73 0 0 0-1.72-.57c.03-.39.13-.72.3-1.02.19-.29.4-.54.68-.75.27-.22.56-.4.86-.54.27-.13.54-.25.82-.35l-1.34-2-.37.18a13.56 13.56 0 0 0-1.62.89 6 6 0 0 0-2.6 4.97c0 .43.07.86.2 1.28.13.38.32.73.58 1.04.3.32.65.57 1.06.73.4.17.85.25 1.3.25.72 0 1.41-.28 1.92-.8.22-.22.39-.5.5-.79Zm-7.67-.87a2.45 2.45 0 0 1-1.5 2.24c-.32.15-.69.22-1.1.22-.44 0-.88-.08-1.29-.25-.4-.16-.76-.41-1.06-.73a3.1 3.1 0 0 1-.57-1.04 4 4 0 0 1-.2-1.28 6 6 0 0 1 1.75-4.28c.25-.25.53-.48.84-.7a9.4 9.4 0 0 1 1.62-.88l.05-.03.32-.14 1.35 1.98c-.25.1-.53.21-.83.36-.3.14-.59.32-.86.53-.26.22-.5.47-.67.76-.18.3-.28.63-.3 1.02.65 0 1.22.19 1.71.57.5.38.74.93.74 1.65Zm249.17 56.87h-3.82l11.88-20.63h3.78l-11.84 20.63Zm-4 1.5c-1.23 0-2.18.97-2.18 2.2 0 1.25.95 2.19 2.18 2.19 1.24 0 2.22-.94 2.22-2.18a2.2 2.2 0 0 0-2.22-2.22Zm-25.26-7.42-1.09 1.88c.84 2.47 4.14 1.1 5.27-.87l1.82-3.12c1.34-2.3-1.64-3.96-6 2.1Zm24 4.86a2.39 2.39 0 0 0-1.41-1.3l-.26.29a23.56 23.56 0 0 1-4.54 4.1c.47-1.4.72-3.12.98-4.96.41-2.86.87-6.05 2.29-8.99l-2.84-1.52-1 1.39c-1.78 2.48-4.58 6.4-7.39 9.69l.02.02h-.02a.1.1 0 0 0-.02-.02l-.26.29c-2.72 3.16-5.37 5.67-7.05 5.67-.83 0-1.63-.84-1.63-2.55v-1.56c2.65.33 5.45-1.42 7.23-4.5l1.01-1.75c3.53-6.03-2.21-8.03-6.06-4.5l5.37-9.34h-3.78l-10.77 18.7c-.2-.19-.44-.34-.7-.46l-.25.3c-2.72 3.15-6.2 5.66-8.86 5.66-2.33 0-3.7-1.46-1.96-4.5l3.88-6.76c2.18-3.74 6.04-3.13 3.78.8l-.54.94h3.09l.54-.94c2.04-3.5.07-6.1-3.01-6.1-3.05 0-5.49 1.6-7.09 4.35l-3.72 6.38a3.06 3.06 0 0 1-.06-.03l-.17-.1-.25.3c-2.73 3.15-5.38 5.66-7.05 5.66-.84 0-1.3-.58-.44-2.07l8.07-14.13h-3.78l-6.72 11.73c-2.87 2.61-5.09 4.07-5.81 3.74-.88-.37-.13-1.61.36-2.43l.05-.08.04-.06.02-.04 7.37-12.86h-3.77l-7.34 12.7c-.5.45-1.31.88-2.04 1.27-.44.24-.85.46-1.15.67.47-1.42.71-3.13.98-4.97.41-2.86.87-6.05 2.29-8.99l-2.84-1.52c-1.56 2.14-10.28 13.7-13.7 17.7.33.46.88.94 1.42 1.3a496.19 496.19 0 0 0 10.68-13.51 23 23 0 0 0-.98 4.62c-.46 3.24-.92 6.35-3.3 6.35-1.27 0-1.78-1.38-1.78-1.38l-2.36 1.23s.69 3.05 4.13 3.05c.34 0 .64-.03.97-.06l.1-.01h.01l.02-.01h.01l.04-.02h.02a16.1 16.1 0 0 0 6.36-2.38c-.01 1.54.91 2.48 2.5 2.48 2.07 0 4.4-1.89 6.2-3.63-.35 2.03.84 3.63 3.24 3.63 2.35 0 4.96-1.88 7.44-4.36.03 2.5 1.97 4.36 5.13 4.36 3.06 0 6.1-1.71 8.74-4.02l-2.1 3.66h3.8l4.33-7.52v3.01c0 3.24.62 4.87 3.67 4.87 3.12 0 6.72-3.34 9.84-6.97v-.01l-.01-.03.04.04a95.42 95.42 0 0 0 4.5-5.74l.88-1.17c-.5 1.32-.74 2.99-.98 4.63-.47 3.24-.92 6.34-3.31 6.34-1.27 0-1.78-1.38-1.78-1.38l-2.36 1.24s.69 3.05 4.14 3.05c.33 0 .63-.03.95-.06l.1-.01a.1.1 0 0 0 .05-.02.13.13 0 0 1 .06-.02c3.85-.51 7.67-3.56 10.5-6.87Zm-114.77-1.08h.18l2.76-4.72c2.29-3.93-1.34-5.7-4-1.2l-1.81 3.08-2.87 4.98c-2.25 3.93 2.07 4.5 3.85 1.46l.04-.08c-.22-.36-.37-.8-.37-1.27 0-1.24.98-2.25 2.22-2.25Zm-25.25 14.13c-.8 1.42-2.07 1.2-2.07.18 0-.98.9-2.1 3.81-3.23l-1.74 3.05Zm-34.84-8.43c1.56 0 3.81-1.7 6.1-5.3l2.94-5.16c1.85-3.42-2.18-4.32-4.21-.8l-5.27 9.2c-.87 1.48-.4 2.06.44 2.06Zm-5.95-20.05c1.12-1.93 2.36-2.76 3.41-2.76 1.42 0 2.07.94 2.07 2.32 0 3.53-4.36 10.83-10.17 9.88h-.76l5.45-9.44Zm92.52 14.38.25-.29c.51.22 1.17.8 1.42 1.31-3.12 3.64-6.72 6.98-9.84 6.98-3.06 0-4.18-2.58-2.58-5.38l4.9-8.53c1.64-2.8-.94-3.75-6.72 3.48l-5.78 10.07h-3.81l2.54-4.4a11.02 11.02 0 0 1-4.94 1.45h-.83c-4.24 5.36-11.27 4.16-10.75-1.12-3.25 3.22-6.36 5.18-9.52 6.17l-2.9 4.98c-2.73 4.65-8.29 3.89-8.29.25 0-2.83 3.2-4.94 8.32-6.46l2.07-3.56c-1.7 1.52-3.78 3.05-5.6 3.05-1.88 0-2.84-1.33-2.38-3.41-2.18 1.99-4.4 3.41-6.44 3.41-3.05 0-4.18-2.58-2.58-5.38l4.9-8.53c1.64-2.8-.94-3.74-6.72 3.49l-5.78 10.06h-3.8l1.38-2.41c-1.94 1.65-3.9 2.77-5.72 2.77-1.92 0-3.09-1.01-3.27-2.47-1.81 1.5-3.7 2.47-5.23 2.47-2.67 0-3.87-1.98-3.05-4.35l-.22.21c-2.49 2.37-4.35 4.14-8.46 4.14-5.34 0-6.9-5.08-4.25-9.66l1.13-1.96a8.53 8.53 0 0 1-4.76-7.52c0-2.55 1.2-5.12 3.89-7.05l1.23 2.22a6 6 0 0 0-2.43 4.75c0 2.11 1.16 4.22 3.38 5.38l5.89-10.13c1.7-2.98 4.17-4.44 6.24-4.44 2.8 0 5.02 2.22 5.02 5.63 0 1.5-.48 3.24-1.53 5.09-2.98 5.2-7.56 7.27-11.59 7.27-.76 0-1.45-.08-2.14-.19l-1.06 1.85c-2.25 3.86-.69 6.44 1.9 6.44 3.67 0 5.75-2.42 8.4-5.5l.15-.17.26-.3c.27.08.56.26.82.5l3.9-6.74c1.6-2.76 4.44-4.36 6.47-4.36 2.47 0 4.1 2.21 3.96 3.81h2.15l-6.1 10.68c-.88 1.5-.4 2.07.43 2.07 1.67 0 4.32-2.5 7.05-5.66l.25-.3c.13.06.25.13.36.2l6.04-10.44h3.78l-1.42 2.47c1.89-1.96 3.6-2.83 5.23-2.83 2.1 0 3.67 2.07 2.04 4.94l-5.45 9.55c-.87 1.5-.4 2.07.43 2.07 1.67 0 4.33-2.5 7.05-5.66l.25-.3c.12.06.23.12.34.2l6.02-10.44H200l-7.37 12.86-.05.08-.06.1c-.5.83-1.24 2.07-.36 2.44.72.32 2.97-1.16 5.88-3.85l6.68-11.63h3.78l-10.35 17.73c2.98-1.27 5.63-3.6 8.75-7.2l.26-.28c.12.05.23.11.34.19l1.62-2.77 1.85-3.24c2.18-3.78 4.43-4.94 7.34-4.94 3.56 0 5.67 3.74 3.38 7.7l-3.56 6.14c1.89-.03 4-.94 5.7-2.8l.26-.29c.17.08.33.18.48.3l6.09-10.54h3.78l-1.42 2.47c1.89-1.96 3.6-2.83 5.23-2.83 2.1 0 3.67 2.07 2.04 4.94l-5.45 9.55c-.88 1.5-.4 2.07.43 2.07 1.67 0 4.33-2.5 7.05-5.66Zm118.88-35.86c-2.29 3.74-4.61 5.52-6.2 5.52-.84 0-1.31-.58-.44-2.07l5.26-9.2c2.04-3.51 6.07-2.6 4.22.8h.03l-2.87 4.95Zm-42.29 5.52c1.56 0 3.82-1.7 6.1-5.3l2.95-5.16c1.85-3.42-2.18-4.32-4.22-.8l-5.26 9.2c-.87 1.48-.4 2.06.43 2.06Zm-33.81 8.43c-.8 1.42-2.07 1.2-2.07.18 0-.98.87-2.1 3.78-3.23l-1.71 3.05Zm11.45-31.24c-1.06 0-2.3.83-3.42 2.76l-5.45 9.44h.76c9.63 2.23 14.1-12.2 8.1-12.2Zm74.24 16.86-.25.29c-2.72 3.16-5.38 5.66-7.05 5.66-.84 0-1.3-.58-.44-2.07l12.8-22.12h-3.79l-5.55 9.59a4.1 4.1 0 0 0-3.46-1.96c-2.03 0-4.86 1.6-6.46 4.36l-3.7 6.38-.04-.03-.02-.01-.18-.1-.25.3c-2.72 3.16-5 5.66-6.67 5.66-.84 0-1.3-.58-.44-2.07l5.45-9.55c1.64-2.87.07-4.94-2.03-4.94-1.64 0-3.34.87-5.24 2.83l1.42-2.47h-3.78l-6.04 10.45a2.66 2.66 0 0 0-.36-.2l-.25.29c-2.72 3.16-5.38 5.66-7.05 5.66-.83 0-1.3-.58-.43-2.07l6.1-10.68h-2.14c.14-1.6-1.5-3.81-3.96-3.81-2.04 0-4.87 1.6-6.47 4.35l-3.65 6.3-.21.24c-2.72 3.16-5.75 5.67-7.42 5.67-.84 0-1.3-.58-.44-2.07l3.78-6.61c1.3-2.3.69-3.64-.54-5.13l-2.11-2.54c-.55-.69-.55-1.45.22-2.18l-1.96-2.14c-2.15 1.92-2.33 4.07-.99 5.81l.33.44-.13.19c-1.66 2.34-3.86 5.44-6.26 8.27 0 .02.02.04.03.05l.04.05.18.22c-3.1 3.58-5.75 5.9-8.73 7.16l4.8-8.2h-3.78l-.4.65c-2 3.52-4.29 6.03-7.23 6.03-2.58 0-3.05-2.58-.8-6.43l1.06-1.85c.7.11 1.42.17 2.14.18 13.44 0 19.94-17.98 8.1-17.98-2.07 0-4.54 1.45-6.25 4.43l-5.88 10.13a6.08 6.08 0 0 1-3.38-5.37 6 6 0 0 1 2.43-4.76l-1.23-2.22c-2.7 1.93-3.89 4.5-3.89 7.05 0 3.02 1.71 5.92 4.76 7.52l-1.13 1.96c-2.65 4.58-2.18 9.67 3.17 9.67 1.6 0 2.94-.48 4.1-1.2l-.98 1.7c-5.12 1.57-8.28 3.64-8.28 6.47 0 3.63 5.56 4.4 8.28-.25l2.9-4.98c3.93-1.23 7.78-3.92 11.92-8.72a2.17 2.17 0 0 0-.23-.35 134.2 134.2 0 0 0 5.95-7.75l.5.62c.48.62.66 1.38.22 2.14l-4 6.94c-1.6 2.8-.47 5.37 2.59 5.37 1.9 0 4.34-1.23 6.38-3.02-.04 1.74 1.14 3.02 3.3 3.02 1.52 0 3.41-.98 5.23-2.47.18 1.46 1.35 2.47 3.27 2.47 1.8 0 3.78-1.12 5.72-2.77l-1.4 2.41h3.82l5.78-10.06c5.77-7.23 8.35-6.29 6.72-3.49l-4.9 8.54c-1.6 2.8-.48 5.37 2.57 5.37 2.01 0 3.84-1.38 5.98-3.33-.2 1.9 1 3.33 3.29 3.33 1.52 0 3.41-.98 5.23-2.47.18 1.46 1.34 2.47 3.27 2.47 3.12 0 6.72-3.34 9.84-6.97a3.3 3.3 0 0 0-1.42-1.3Zm-108.5-4.51c2.26-3.92-1.6-4.54-3.78-.8l-2.43 4.25c1.41.5 3.85.58 5.67-2.5l.54-.95Zm-6.83 12.79c4.29 0 8.54-3.34 11.66-6.98a3.27 3.27 0 0 0-1.41-1.3l-.26.29c-2.72 3.16-6.21 5.66-8.86 5.66-2.33 0-3.7-1.45-1.97-4.5l.37-.66c2.43 1.02 7 .55 9.84-4.35l.55-.95c2.03-3.49.07-6.1-3.02-6.1-3.05 0-5.48 1.6-7.08 4.36l-3.68 6.3-.11-.05-.26.29c-2.72 3.16-5.37 5.66-7.04 5.66-.84 0-1.31-.58-.44-2.07l5.45-9.55c1.63-2.87.07-4.94-2.04-4.94-1.63 0-3.38.9-5.26 2.87l6.03-10.5h-3.78l-10.66 18.49c-.13-.1-.28-.19-.43-.26l-.25.3c-2.73 3.16-5.38 5.66-7.05 5.66-.84 0-1.3-.58-.44-2.07l8.1-14.13h3.1l1.08-1.82h-3.12l3.56-6.17h-3.78l-3.56 6.17h-3.41l-1.1 1.82h3.45l-7.59 13.15c-1.6 2.8-.47 5.38 2.58 5.38 1.88 0 3.93-1.22 5.94-2.97l-1.5 2.6h3.82l5.74-9.99c5.81-7.3 8.39-6.35 6.75-3.56l-4.9 8.54c-1.6 2.8-.47 5.38 2.58 5.38 2.3 0 4.85-1.8 7.28-4.2.1 2.42 2.03 4.2 5.12 4.2Zm-123.7-12.8c2.26-3.91-1.59-4.53-3.77-.79l-2.44 4.25c1.42.5 3.86.58 5.67-2.5l.55-.95Zm19.35 8.4 5.27-9.19c2.03-3.53 6.06-2.62 4.21.8l-2.94 5.16c-2.29 3.6-4.54 5.3-6.1 5.3-.84 0-1.31-.58-.44-2.07Zm57.76-8.4c2.25-3.91-1.6-4.53-3.78-.79l-2.43 4.25c1.41.5 3.85.58 5.66-2.5l.55-.95Zm-61.59 8.74c-.62 2.24.57 4.06 3.14 4.06 1.52 0 3.41-.98 5.23-2.47.18 1.45 1.35 2.47 3.27 2.47 2.01 0 4.22-1.4 6.37-3.35-.42 2.04.54 3.35 2.4 3.35 2.07 0 4.4-1.9 6.21-3.64-.36 2.04.84 3.64 3.24 3.64 3.12 0 6.72-3.34 9.84-6.98a.72.72 0 0 0-.06-.09l-.04-.06a99.9 99.9 0 0 0 4.33-5.52l.92-1.23a23 23 0 0 0-.98 4.63c-.47 3.23-.92 6.34-3.31 6.34-1.27 0-1.78-1.38-1.78-1.38l-2.36 1.24s.69 3.05 4.14 3.05c.32 0 .62-.03.94-.06l.11-.02.06-.01.05-.02c2.78-.37 5.53-2.06 7.91-4.21.06 2.49 1.99 4.32 5.13 4.32 4.29 0 8.54-3.34 11.66-6.98a3.27 3.27 0 0 0-1.41-1.3l-.26.28c-2.72 3.16-6.21 5.67-8.86 5.67-2.33 0-3.7-1.45-1.97-4.5l.37-.66c2.43 1.02 7 .55 9.84-4.36l.55-.94c2.03-3.49.07-6.1-3.02-6.1-3.05 0-5.48 1.6-7.08 4.35l-3.67 6.3h-.02v-.01l-.03-.01-.03-.02h-.02l-.26.28a23.6 23.6 0 0 1-4.54 4.1c.47-1.4.72-3.11.98-4.96.42-2.86.88-6.05 2.3-8.98l-2.84-1.53-1.03 1.43a147.26 147.26 0 0 1-7.37 9.65l.07.08.05.06-.14.15c-2.72 3.16-5.38 5.67-7.05 5.67-.83 0-1.3-.58-.43-2.07l8.06-14.13h-3.78l-6.72 11.73c-2.87 2.62-5.08 4.07-5.81 3.74-.88-.37-.13-1.62.36-2.43l.01-.02c.03-.03.04-.07.06-.1l.04-.06 7.38-12.86h-3.78l-6.02 10.4-.03-.02-.25-.14-.26.29c-2.72 3.16-5.37 5.67-7.05 5.67-.83 0-1.3-.58-.43-2.07l6.1-10.69h-2.14c.14-1.6-1.49-3.81-3.96-3.81-2.04 0-4.87 1.6-6.47 4.36l-3.83 6.61a2.78 2.78 0 0 0-.57-.36l-.26.29c-2.72 3.16-5.86 5.66-8.5 5.66-2.33 0-3.71-1.45-1.97-4.5l3.89-6.75c2.18-3.75 6.03-3.13 3.77.8l-.54.94h3.09l.54-.95c2.04-3.48.07-6.1-3.01-6.1-3.05 0-5.14 1.6-6.73 4.36l-3.76 6.44a2.4 2.4 0 0 0-.34-.2l-.26.3c-2.72 3.16-5.95 5.66-8.6 5.66-2.32 0-3.7-1.45-1.96-4.5l.36-.65c2.44 1.01 7.02.54 9.85-4.36l.54-.95c2.04-3.48.08-6.1-3.01-6.1-3.05 0-5.49 1.6-7.09 4.36l-3.95 6.8c-2.37 4.03-.33 7.73 4.13 7.73 3.33 0 6.02-2.01 8.8-4.62-.1 2.64 1.85 4.62 5.11 4.62 3.1 0 5.8-1.73 8.44-4.05ZM113.46 144l-3.05 5.24c3.85-.08 6-.91 7.45-3.64 1.89-3.56-1.64-6.35-4.4-1.6Zm-7.12 22.46c-2.25 0-4.03-.51-5.44-1.31.65-.76 1.3-1.7 1.89-2.69l6.35-11 1.02.1c8.86 1.86 5.34 14.9-3.82 14.9Zm9.34-15.48c7.63-2.58 8.21-12.13.7-12.13-2.08 0-4.55 1.45-6.26 4.43l-10.17 17.58c-.42.76-.9 1.47-1.45 2.14-2.62-3.6-1.85-8.97 1.81-11.33l-1.52-1.93c-7.92 5.05-5.6 19.62 7.63 19.62 11.3 0 16.53-13.55 9.26-18.38Z" clip-rule="evenodd"/>
</svg>
